<?xml version="1.0" encoding="UTF-8"?>
<svg id="Calque_1" data-name="Calque 1" xmlns="http://www.w3.org/2000/svg" viewBox="0 0 1080 1080">
  <defs>
    <style>
      .cls-1 {
        fill: #fff;
        stroke: #fff;
        stroke-miterlimit: 10;
      }
    </style>
  </defs>
  <path class="cls-1" d="M425.87,1050.96h-250.03v-482.93l258.11,469.25c3.38,6.15-1.07,13.67-8.08,13.67Z"/>
  <path class="cls-1" d="M904.16,818.28c0,64.26-26.05,122.43-68.15,164.54-42.11,42.11-100.28,68.15-164.54,68.15h-212.18c-7.02,0-11.47-7.52-8.08-13.67l251.88-457.92c2.87-5.22,9.86-6.4,14.27-2.39,36.74,33.38,186.79,146.3,186.79,241.3Z"/>
  <path class="cls-1" d="M810.98,262.45c-.19,63.97-99.42,215.03-99.42,215.03l-253.17,452.93c-7.01,12.74-25.32,12.74-32.33,0l-249.47-453.53V29.04h400.16c128.38,0,234.62,105.03,234.24,233.41Z"/>
</svg>